name rise49.8558peak67.6521fall70.3087.mot
datacolumns 19
datarows 18
range 9.73996700000000 9.76830000000000
endheader
time	ground_force1_vx	ground_force1_vy	ground_force1_vz	ground_force1_px	ground_force1_py	ground_force1_pz	ground_force2_vx	ground_force2_vy	ground_force2_vz	ground_force2_px	ground_force2_py	ground_force2_pz	ground_torque1_x	ground_torque1_y	ground_torque1_z	ground_torque2_x	ground_torque2_y	ground_torque2_z	
9.73996700000000	-47.92274900000000	806.79181500000004	66.16498400000000	0.19521900000000	0.00000000000000	0.12390100000000	-4.36863300000000	26.51962700000000	3.66653600000000	0.32802200000000	0.00000000000000	-0.08326800000000	0.00000000000000	37.08140300000000	0.00000000000000	0.00000000000000	2.23014200000000	0.00000000000000	
9.74163200000000	-48.05392700000000	804.75683200000003	66.03750500000000	0.19431100000000	0.00000000000000	0.12382200000000	-5.07911500000000	32.61552200000000	4.35269900000000	0.33685600000000	0.00000000000000	-0.08328300000000	0.00000000000000	36.90338800000000	0.00000000000000	0.00000000000000	2.70774100000000	0.00000000000000	
9.74330100000000	-48.18432300000000	802.60732800000005	65.88374500000000	0.19341700000000	0.00000000000000	0.12373800000000	-5.73179100000000	38.95762100000000	5.01963300000000	0.34495900000000	0.00000000000000	-0.08329500000000	0.00000000000000	36.71732800000000	0.00000000000000	0.00000000000000	3.18897000000000	0.00000000000000	
9.74496800000000	-48.31458900000000	800.34290999999996	65.70339700000000	0.19253700000000	0.00000000000000	0.12364900000000	-6.30024100000000	45.42704700000000	5.64684900000000	0.35243800000000	0.00000000000000	-0.08330300000000	0.00000000000000	36.52345400000000	0.00000000000000	0.00000000000000	3.65998000000000	0.00000000000000	
9.74662900000000	-48.44537900000000	797.96322099999998	65.49620400000001	0.19167300000000	0.00000000000000	0.12355400000000	-6.76257600000000	51.91676100000000	6.21679900000000	0.35937700000000	0.00000000000000	-0.08331000000000	0.00000000000000	36.32201100000000	0.00000000000000	0.00000000000000	4.10825300000000	0.00000000000000	
9.74829300000000	-48.57734800000000	795.46794000000000	65.26195900000000	0.19082400000000	0.00000000000000	0.12345400000000	-7.10256900000000	58.33847800000000	6.71584400000000	0.36584600000000	0.00000000000000	-0.08331600000000	0.00000000000000	36.11325400000000	0.00000000000000	0.00000000000000	4.52336500000000	0.00000000000000	
9.74995900000000	-48.71114800000000	792.85677799999996	65.00050400000001	0.18999100000000	0.00000000000000	0.12334900000000	-7.31016900000000	64.62706700000000	7.13475000000000	0.37190200000000	0.00000000000000	-0.08332300000000	0.00000000000000	35.89745000000000	0.00000000000000	0.00000000000000	4.89747500000000	0.00000000000000	
9.75165200000000	-48.84742300000000	790.12947399999996	64.71173400000001	0.18917600000000	0.00000000000000	0.12323800000000	-7.38144400000000	70.74236200000000	7.46876900000000	0.37759300000000	0.00000000000000	-0.08333100000000	0.00000000000000	35.67487400000000	0.00000000000000	0.00000000000000	5.22552900000000	0.00000000000000	
9.75331400000000	-48.98681000000000	787.28579000000002	64.39559400000000	0.18837800000000	0.00000000000000	0.12312200000000	-7.31802800000000	76.66862100000000	7.71732300000000	0.38295700000000	0.00000000000000	-0.08334100000000	0.00000000000000	35.44581100000000	0.00000000000000	0.00000000000000	5.50520800000000	0.00000000000000	
9.75496200000000	-49.12993000000000	784.32551200000000	64.05208100000000	0.18759800000000	0.00000000000000	0.12300000000000	-7.12621400000000	82.41206800000000	7.88340900000000	0.38803000000000	0.00000000000000	-0.08335200000000	0.00000000000000	35.21055000000000	0.00000000000000	0.00000000000000	5.73665200000000	0.00000000000000	
9.75663000000000	-49.27739100000000	781.24844199999995	63.68124100000000	0.18683700000000	0.00000000000000	0.12287100000000	-6.81582000000000	87.99705800000000	7.97281100000000	0.39283900000000	0.00000000000000	-0.08336600000000	0.00000000000000	34.96938800000000	0.00000000000000	0.00000000000000	5.92202900000000	0.00000000000000	
9.75830000000000	-49.42977600000000	778.05439999999999	63.28317500000000	0.18609500000000	0.00000000000000	0.12273700000000	-6.39896400000000	93.46140800000001	7.99322500000000	0.39740800000000	0.00000000000000	-0.08338200000000	0.00000000000000	34.72262400000000	0.00000000000000	0.00000000000000	6.06501400000000	0.00000000000000	
9.75995900000000	-49.58764700000000	774.74321799999996	62.85803100000000	0.18537300000000	0.00000000000000	0.12259700000000	-5.88886900000000	98.85144699999999	7.95336900000000	0.40175900000000	0.00000000000000	-0.08340000000000	0.00000000000000	34.47056100000000	0.00000000000000	0.00000000000000	6.17022200000000	0.00000000000000	
9.76162500000000	-49.75153500000000	771.31473800000003	62.40601100000000	0.18467100000000	0.00000000000000	0.12245100000000	-5.29877600000000	104.21721700000001	7.86217800000000	0.40590900000000	0.00000000000000	-0.08342100000000	0.00000000000000	34.21350200000000	0.00000000000000	0.00000000000000	6.24267500000000	0.00000000000000	
9.76329200000000	-49.92194100000000	767.76881100000003	61.92736300000000	0.18398900000000	0.00000000000000	0.12229900000000	-4.64106000000000	109.60819499999999	7.72811000000000	0.40987500000000	0.00000000000000	-0.08344400000000	0.00000000000000	33.95175200000000	0.00000000000000	0.00000000000000	6.28731600000000	0.00000000000000	
9.76495900000000	-50.09932800000000	764.10529599999995	61.42238900000000	0.18332800000000	0.00000000000000	0.12214000000000	-3.92654700000000	115.06977000000001	7.55861300000000	0.41366900000000	0.00000000000000	-0.08347000000000	0.00000000000000	33.68561100000000	0.00000000000000	0.00000000000000	6.30861700000000	0.00000000000000	
9.76662900000000	-50.28411700000000	760.32405600000004	60.89143400000000	0.18268800000000	0.00000000000000	0.12197600000000	-3.16408800000000	120.64063100000000	7.35976400000000	0.41730500000000	0.00000000000000	-0.08349900000000	0.00000000000000	33.41537800000000	0.00000000000000	0.00000000000000	6.31029100000000	0.00000000000000	
9.76830000000000	-50.47668600000000	756.42495799999995	60.33489500000000	0.18206900000000	0.00000000000000	0.12180500000000	-2.36034700000000	126.35108600000000	7.13606900000000	0.42079200000000	0.00000000000000	-0.08353100000000	0.00000000000000	33.14134800000000	0.00000000000000	0.00000000000000	6.29511600000000	0.00000000000000	
